<?xml version="1.0" encoding="utf-8"?>
<!-- Generator: Adobe Illustrator 23.0.1, SVG Export Plug-In . SVG Version: 6.00 Build 0)  -->
<svg version="1.1" id="Vrstva_1" xmlns="http://www.w3.org/2000/svg" xmlns:xlink="http://www.w3.org/1999/xlink" x="0px" y="0px"
	 viewBox="0 0 100 100" style="enable-background:new 0 0 100 100;" xml:space="preserve">
<style type="text/css">
	.st0{fill:#FFFFFF;}
</style>
<path class="st0" d="M50,0C22.4,0,0,22.4,0,50c0,27.6,22.4,50,50,50s50-22.4,50-50C100,22.4,77.6,0,50,0z M62.7,53
	c-7.1,7.2-14.3,14.3-21.5,21.5c-0.1,0.1-0.2,0.2-0.3,0.3c-1.9-1.9-3.8-3.7-5.7-5.5c6.4-6.3,12.7-12.7,19.1-19
	c-6.5-6.5-12.9-12.9-19.2-19.1c2-2,3.8-3.9,5.8-5.8c0.1,0.1,0.3,0.3,0.5,0.5c7.1,7.1,14.1,14.1,21.2,21.2
	C64.5,48.8,64.5,51.2,62.7,53z"/>
</svg>
